# xmcd
#
# Track frame offsets:
#  180
#  12161
#  24458
#  37667
#  58438
#  87551
#  108847
#  129084
#  140645
#  161421
#  182791
#  219315
#
# Disc length: 3213 seconds
#
# Revision: 0
# Processed by: cddbd v1.4PL0 Copyright (c) Steve Scherf et al.
# Submitted via: AltoMP3_Maker 3.0
#
DISCID=990c8b0c
DTITLE=Various Artist - Piano Night at Tipitina's 1994
DYEAR=1900
DGENRE=
TTITLE0=01-Crawfish Fiesta - Tom Worrell
TTITLE1=02-The Perfect Rag - Tom Roberts
TTITLE2=03-Toulouse Street - David Thomas Roberts
TTITLE3=04-My Baby Don't Wear No Drawers - Bruce 'Sunpie' Barnes
TTITLE4=05-Let Them Talk/The Mule Walk - Tom McDermott
TTITLE5=06-Piano Blues - David Torkanowski and Dave Paquette
TTITLE6=07-Professor Longhair is Passing By - David Torkanowski
TTITLE7=08-I;m Gonna Sit Right Down and Write Myself a Letter - Walter Lewis
TTITLE8=09-Davell's Boogie Woogie - Davell Crawford
TTITLE9=10-Down Home Blues - Tommy Ridgley
TTITLE10=11-Tee Nah Nah - Jon Cleary
TTITLE11=Check Mr. Popeye - Eddie Bo
EXTD=
EXTT0=
EXTT1=
EXTT2=
EXTT3=
EXTT4=
EXTT5=
EXTT6=
EXTT7=
EXTT8=
EXTT9=
EXTT10=
EXTT11=
PLAYORDER=
